<svg width="44" height="44" viewBox="0 0 44 44" fill="none" xmlns="http://www.w3.org/2000/svg">
    <path
        d="M34.6008 34.1228L21.0409 32.2449L15.7272 26.9319C15.7271 26.9317 15.7269 26.9314 15.7266 26.9311C15.5299 26.7339 15.5297 26.4134 15.7251 26.2176C15.8536 26.0892 16.004 26.07 16.0822 26.07C16.1599 26.07 16.3094 26.0891 16.4365 26.2165C16.4368 26.2169 16.4371 26.217 16.4375 26.2173L20.4548 30.2347C20.455 30.2349 20.4552 30.2349 20.4553 30.2352C20.4555 30.2353 20.4556 30.2355 20.4558 30.2356C20.4672 30.2472 20.48 30.2567 20.4917 30.2681C20.5091 30.2842 20.5265 30.3009 20.5446 30.3157C21.1343 30.8607 21.8854 31.1365 22.6387 31.1365C23.4297 31.1365 24.2215 30.8357 24.8245 30.2341C26.0278 29.0287 26.0274 27.0684 24.8237 25.8646L13.7951 14.8356C13.5756 14.6161 13.278 14.4928 12.9675 14.4928H1.17016C0.523763 14.4928 0 15.0167 0 15.663C0 16.3092 0.523763 16.8331 1.17016 16.8331H12.4829L23.1687 27.5188C23.4607 27.8111 23.4604 28.2873 23.1696 28.5785C22.8774 28.8703 22.401 28.8703 22.1088 28.5785C22.1084 28.5781 22.1077 28.5776 22.1073 28.5771L18.0938 24.564C18.0936 24.5638 18.0935 24.5635 18.0932 24.5632C18.0928 24.5629 18.0925 24.5627 18.0922 24.5624C18.0917 24.5619 18.0911 24.5613 18.0907 24.5608C17.5546 24.0248 16.8412 23.7296 16.0822 23.7296C15.3225 23.7296 14.6083 24.0252 14.0698 24.563C12.992 25.6429 12.9674 27.3814 13.9899 28.4955C13.9968 28.504 14.0049 28.5116 14.0119 28.5197C14.0318 28.5408 14.0491 28.5631 14.0695 28.5837C14.0698 28.584 14.0701 28.5843 14.0706 28.5846L14.0708 28.5848L19.664 34.1775C19.8442 34.3577 20.0782 34.4741 20.3308 34.5092L34.2694 36.4394C34.532 36.4782 35.0283 36.6536 35.0283 37.0411C35.0286 37.2525 34.921 37.3917 34.8568 37.456C34.7924 37.5204 34.6526 37.6286 34.4403 37.6286H18.8511L6.44383 25.2197C6.22446 25.0004 5.92678 24.8769 5.61629 24.8769H1.17016C0.523763 24.8769 0 25.4009 0 26.0471C0 26.6933 0.523763 27.2173 1.17016 27.2173H5.13169L17.539 39.6261C17.7583 39.8455 18.056 39.9689 18.3665 39.9689H34.4403C35.2233 39.9689 35.9591 39.6639 36.5125 39.11C37.0653 38.5566 37.3694 37.8209 37.3685 37.0399C37.3686 35.563 36.2347 34.364 34.6008 34.1228Z"
        fill="white" />
    <path d="M22 7.5L26.5 5L32 6.5L37.5 5L41.5 6.5L43.5 12L38.5 20L32 25L25.5 20L20.5 12L22 7.5Z" fill="#EF4444" />
    <path
        d="M36.8533 4.03101C35.0764 4.03101 33.3207 4.69113 31.9588 5.83758C30.597 4.69098 28.8418 4.03101 27.0655 4.03101C23.0581 4.03101 19.9189 7.17015 19.9189 11.1777C19.9189 15.9362 23.9923 19.5458 29.6349 24.5356L31.1327 26.0291C31.3611 26.2568 31.66 26.3706 31.9589 26.3706C32.2577 26.3706 32.5565 26.2568 32.7848 26.0295L34.2843 24.5358C39.9263 19.5462 43.9999 15.9364 43.9999 11.1777C43.9999 7.17015 40.8606 4.03101 36.8533 4.03101ZM32.7077 22.8057C32.6904 22.8209 32.6734 22.8369 32.6571 22.8532L31.9593 23.5483L31.2625 22.8536C31.2459 22.837 31.2289 22.8209 31.2114 22.8055C25.494 17.7493 22.2593 14.7163 22.2593 11.1776C22.2593 8.43751 24.3255 6.37117 27.0655 6.37117C28.5585 6.37117 30.0912 7.08699 31.0653 8.23921C31.2876 8.5021 31.6146 8.65391 31.9589 8.65391C32.3033 8.65391 32.6303 8.50226 32.8526 8.23921C33.8268 7.08699 35.3599 6.37117 36.8536 6.37117C39.5937 6.37117 41.6599 8.43751 41.6599 11.1776C41.6596 14.7167 38.4248 17.7496 32.7077 22.8057Z"
        fill="#EF4444" />
</svg>