<svg width="46" height="46" viewBox="0 0 46 46" fill="none" xmlns="http://www.w3.org/2000/svg">
<path d="M23 45C35.1503 45 45 35.1503 45 23C45 10.8497 35.1503 1 23 1C10.8497 1 1 10.8497 1 23C1 35.1503 10.8497 45 23 45Z" stroke="white" stroke-width="2"/>
<mask id="mask0_12_1902" style="mask-type:luminance" maskUnits="userSpaceOnUse" x="-1" y="-1" width="48" height="48">
<path d="M23 45C35.1503 45 45 35.1503 45 23C45 10.8497 35.1503 1 23 1C10.8497 1 1 10.8497 1 23C1 35.1503 10.8497 45 23 45Z" stroke="white" stroke-width="4"/>
</mask>
<g mask="url(#mask0_12_1902)">
</g>
<path fill-rule="evenodd" clip-rule="evenodd" d="M13.5045 19.4131H17.4026V32.9987H13.5045V19.4131ZM15.3542 17.7138H15.326C13.9149 17.7138 13 16.6752 13 15.3601C13 14.0181 13.9419 13 15.3812 13C16.8194 13 17.7037 14.0155 17.7319 15.3563C17.7319 16.6714 16.8194 17.7138 15.3542 17.7138ZM33 33H28.5797V25.9684C28.5797 24.1282 27.8883 22.8732 26.3678 22.8732C25.2048 22.8732 24.5581 23.7197 24.2571 24.538C24.1442 24.8299 24.1618 25.2384 24.1618 25.6482V33H19.7827C19.7827 33 19.8391 20.5451 19.7827 19.4131H24.1618V21.5453C24.4205 20.613 25.8198 19.2825 28.0529 19.2825C30.8234 19.2825 33 21.2379 33 25.4446V33Z" fill="white"/>
</svg>
