<svg width="46" height="46" viewBox="0 0 46 46" fill="none" xmlns="http://www.w3.org/2000/svg">
<path d="M23 45C35.1503 45 45 35.1503 45 23C45 10.8497 35.1503 1 23 1C10.8497 1 1 10.8497 1 23C1 35.1503 10.8497 45 23 45Z" stroke="white" stroke-width="2"/>
<mask id="mask0_12_1916" style="mask-type:luminance" maskUnits="userSpaceOnUse" x="0" y="0" width="46" height="46">
<path d="M23 45C35.1503 45 45 35.1503 45 23C45 10.8497 35.1503 1 23 1C10.8497 1 1 10.8497 1 23C1 35.1503 10.8497 45 23 45Z" stroke="white" stroke-width="2"/>
</mask>
<g mask="url(#mask0_12_1916)">
</g>
<path fill-rule="evenodd" clip-rule="evenodd" d="M31.5261 17.8457C32.4161 17.2841 33.099 16.3936 33.4194 15.3328C32.5862 15.8541 31.6654 16.2311 30.683 16.4352C29.8991 15.5512 28.7787 15 27.5387 15C25.1597 15 23.2319 17.0345 23.2319 19.5436C23.2319 19.8998 23.2677 20.2469 23.3416 20.5784C19.7621 20.3886 16.5881 18.5815 14.4619 15.8307C14.0909 16.5041 13.8789 17.2841 13.8789 18.1161C13.8789 19.6918 14.6394 21.0828 15.7956 21.8992C15.0893 21.8758 14.4249 21.6691 13.8431 21.3311V21.387C13.8431 23.5892 15.3272 25.4261 17.3006 25.8421C16.9382 25.9487 16.5585 26.002 16.1641 26.002C15.8868 26.002 15.6156 25.9747 15.3543 25.9214C15.9016 27.7258 17.4929 29.0415 19.3788 29.0766C17.9033 30.296 16.0458 31.0214 14.028 31.0214C13.6804 31.0214 13.3365 31.0019 13 30.959C14.9068 32.2473 17.1712 33 19.6043 33C27.53 33 31.8614 26.0761 31.8614 20.0714C31.8614 19.8738 31.859 19.6775 31.8503 19.4837C32.6922 18.8428 33.4244 18.042 34 17.1307C33.2272 17.4921 32.3964 17.7365 31.5261 17.8457Z" fill="white"/>
</svg>
